<svg viewBox="0 0 96 96" xmlns="http://www.w3.org/2000/svg" xmlns:xlink="http://www.w3.org/1999/xlink" id="Icons_OpenBook_M" overflow="hidden"><style>
.MsftOfcThm_Background1_lumMod_85_Fill_v2 {
 fill:#D9D9D9; 
}
.MsftOfcThm_Background1_lumMod_85_Stroke_v2 {
 stroke:#D9D9D9; 
}
</style>
<g id="Icons"><rect x="56" y="32" width="15" height="2" class="MsftOfcThm_Background1_lumMod_85_Fill_v2 MsftOfcThm_Background1_lumMod_85_Stroke_v2" stroke="#D9D9D9" stroke-width="1.00015" stroke-linecap="butt" stroke-linejoin="miter" stroke-miterlimit="4" stroke-opacity="1" fill="#D9D9D9" fill-opacity="1"/><rect x="56" y="38" width="15" height="2" class="MsftOfcThm_Background1_lumMod_85_Fill_v2 MsftOfcThm_Background1_lumMod_85_Stroke_v2" stroke="#D9D9D9" stroke-width="1.00015" stroke-linecap="butt" stroke-linejoin="miter" stroke-miterlimit="4" stroke-opacity="1" fill="#D9D9D9" fill-opacity="1"/><rect x="56" y="44" width="10" height="2" class="MsftOfcThm_Background1_lumMod_85_Fill_v2 MsftOfcThm_Background1_lumMod_85_Stroke_v2" stroke="#D9D9D9" stroke-width="1.00015" stroke-linecap="butt" stroke-linejoin="miter" stroke-miterlimit="4" stroke-opacity="1" fill="#D9D9D9" fill-opacity="1"/><path d="M87 24 81 24 81 19.6C81.0001 19.1729 80.7289 18.7928 80.325 18.654 69.8402 15.154 58.5083 15.1154 48 18.544 37.4918 15.1151 26.1599 15.1533 15.675 18.653 15.2707 18.7919 14.9994 19.1725 15 19.6L15 24 9 24C8.44771 24 8 24.4477 8 25L8 73C8 73.5523 8.44771 74 9 74L41.1 74C41.5195 75.7591 43.0916 77.0002 44.9 77L51.1 77C52.9084 77.0002 54.4805 75.7591 54.9 74L87 74C87.5523 74 88 73.5523 88 73L88 25C88 24.4477 87.5523 24 87 24ZM79 20.32 79 66.22C69.2196 63.256 58.7804 63.256 49 66.22L49 20.32C58.7608 17.2266 69.2392 17.2266 79 20.32ZM17 20.32C26.7608 17.2266 37.2392 17.2266 47 20.32L47 66.22C37.2196 63.256 26.7804 63.256 17 66.22ZM86 72 54 72C53.4477 72 53 72.4477 53 73L53 73.1C53 74.1493 52.1493 75 51.1 75L44.9 75C43.8507 75 43 74.1493 43 73.1L43 73C43 72.4477 42.5523 72 42 72L10 72 10 26 15 26 15 67.6C14.9998 68.1523 15.4474 68.6001 15.9997 68.6003 16.1104 68.6003 16.2203 68.582 16.325 68.546 26.4995 65.1527 37.5005 65.1527 47.675 68.546 47.6915 68.5497 47.7082 68.5524 47.725 68.554 47.7989 68.5757 47.8751 68.5885 47.952 68.592 47.968 68.592 47.984 68.6 48 68.6 48.016 68.6 48.025 68.595 48.037 68.594 48.1131 68.5916 48.1886 68.5802 48.262 68.56 48.278 68.56 48.295 68.554 48.312 68.549L48.325 68.549C58.4995 65.1557 69.5005 65.1557 79.675 68.549 79.7798 68.5836 79.8896 68.6008 80 68.6 80.5523 68.6 81 68.1523 81 67.6L81 26 86 26Z" class="MsftOfcThm_Background1_lumMod_85_Fill_v2 MsftOfcThm_Background1_lumMod_85_Stroke_v2" stroke="#D9D9D9" stroke-width="1.00015" stroke-linecap="butt" stroke-linejoin="miter" stroke-miterlimit="4" stroke-opacity="1" fill="#D9D9D9" fill-opacity="1"/></g></svg>