<svg viewBox="0 0 96 96" xmlns="http://www.w3.org/2000/svg" xmlns:xlink="http://www.w3.org/1999/xlink" id="Icons_Megaphone" overflow="hidden"><style>
.MsftOfcResponsive_Fill_c00000 {
 fill:#C00000; 
}
</style>
<path d="M13.9 65.4C13.1 64 11.2 63.5 9.8 64.3 8.4 65.1 7.9 67 8.7 68.4L14.7 78.8C15.5 80.2 17.4 80.7 18.8 79.9 20.2 79.1 20.7 77.2 19.9 75.8L13.9 65.4Z" class="MsftOfcResponsive_Fill_c00000" fill="#C00000"/><path d="M57.8 71.5 43.9 75.5 40.6 71.9 58.7 66.7 57.8 71.5ZM87 56 80.3 44.4 71.3 28.8 64.6 17.2C63.9 16.1 62.4 15.9 61.5 16.8L15.9 60.8 24.9 76.4 36.3 73.2 41.4 78.7C42.2 79.5 43.3 79.9 44.4 79.6L59.5 75.3C59.7 75.2 60 75.1 60.2 75 60.9 74.6 61.5 73.8 61.6 73L63 65.6 85.9 59.1C87.1 58.6 87.7 57.1 87 56Z" class="MsftOfcResponsive_Fill_c00000" fill="#C00000"/></svg>